<svg width="195" height="29" viewBox="0 0 195 29" fill="none" xmlns="http://www.w3.org/2000/svg">
<path d="M0.00381279 28.2344V2.09037H8.55381C10.7578 2.09037 12.5565 2.20437 13.9498 2.43237C15.3685 2.63504 16.4831 3.01504 17.2938 3.57237C18.1045 4.12971 18.6871 4.90237 19.0418 5.89038C19.4218 6.87837 19.6625 8.13237 19.7638 9.65237C19.8651 11.1724 19.9158 13.009 19.9158 15.1624C19.9158 17.3157 19.8651 19.1524 19.7638 20.6724C19.6625 22.1924 19.4218 23.4464 19.0418 24.4344C18.6871 25.4224 18.1045 26.195 17.2938 26.7524C16.4831 27.3097 15.3685 27.7024 13.9498 27.9304C12.5565 28.133 10.7578 28.2344 8.55381 28.2344H0.00381279ZM4.29781 24.5864H8.17381C9.59248 24.5864 10.7578 24.561 11.6698 24.5104C12.6071 24.4344 13.3418 24.257 13.8738 23.9784C14.4058 23.6744 14.7985 23.193 15.0518 22.5344C15.3051 21.8757 15.4571 20.951 15.5078 19.7604C15.5838 18.5444 15.6218 17.0117 15.6218 15.1624C15.6218 13.313 15.5838 11.793 15.5078 10.6024C15.4571 9.41171 15.2925 8.48704 15.0138 7.82837C14.7605 7.14437 14.3551 6.66304 13.7978 6.38437C13.2658 6.08037 12.5438 5.90304 11.6318 5.85237C10.7198 5.77637 9.56715 5.73837 8.17381 5.73837H4.29781V24.5864ZM25.5606 28.2344V0.00037384H29.5886V11.2484H29.8546C30.1586 10.6657 30.5639 10.1844 31.0706 9.80437C31.5773 9.39904 32.2106 9.09504 32.9706 8.89237C33.7559 8.68971 34.7059 8.58837 35.8206 8.58837C37.1886 8.58837 38.2906 8.74037 39.1266 9.04438C39.9879 9.34837 40.6339 9.81704 41.0646 10.4504C41.4953 11.0837 41.7866 11.869 41.9386 12.8064C42.1159 13.7437 42.2046 14.8457 42.2046 16.1124V28.2344H38.1386V17.7084C38.1386 16.4417 38.0879 15.441 37.9866 14.7064C37.9106 13.9464 37.7333 13.389 37.4546 13.0344C37.1759 12.6544 36.7579 12.4137 36.2006 12.3124C35.6686 12.211 34.9466 12.1604 34.0346 12.1604C33.0213 12.1604 32.2106 12.287 31.6026 12.5404C31.0199 12.7937 30.5766 13.1737 30.2726 13.6804C29.9939 14.187 29.8039 14.8204 29.7026 15.5804C29.6266 16.3404 29.5886 17.227 29.5886 18.2404V28.2344H25.5606ZM53.1373 28.5384C51.82 28.5384 50.7053 28.361 49.7933 28.0064C48.9066 27.6517 48.2353 27.069 47.7793 26.2584C47.3233 25.4224 47.0953 24.295 47.0953 22.8764C47.0953 21.3817 47.2726 20.2037 47.6273 19.3424C47.982 18.4557 48.59 17.8224 49.4513 17.4424C50.3126 17.0624 51.5286 16.8724 53.0993 16.8724C53.3526 16.8724 53.72 16.885 54.2013 16.9104C54.708 16.9104 55.278 16.923 55.9113 16.9484C56.57 16.9484 57.216 16.961 57.8493 16.9864C58.508 16.9864 59.1033 16.999 59.6353 17.0244V16.1124C59.6353 15.1244 59.572 14.3517 59.4453 13.7944C59.3186 13.237 59.0526 12.8317 58.6473 12.5784C58.2673 12.2997 57.71 12.1224 56.9753 12.0464C56.2406 11.9704 55.2906 11.9324 54.1253 11.9324C53.568 11.9324 52.9093 11.9577 52.1493 12.0084C51.4146 12.0337 50.6926 12.0717 49.9833 12.1224C49.274 12.173 48.7293 12.2364 48.3493 12.3124V9.12037C49.388 8.91771 50.528 8.77837 51.7693 8.70238C53.0106 8.60104 54.252 8.55037 55.4933 8.55037C56.9373 8.55037 58.1406 8.63904 59.1033 8.81637C60.0913 8.99371 60.8893 9.27237 61.4973 9.65237C62.1053 10.0324 62.5613 10.5264 62.8653 11.1344C63.1693 11.7424 63.3846 12.477 63.5113 13.3384C63.638 14.1744 63.7013 15.137 63.7013 16.2264V28.2344H59.9773L59.8253 25.7264H59.5973C59.1666 26.537 58.584 27.1577 57.8493 27.5884C57.14 27.9937 56.3673 28.247 55.5313 28.3484C54.6953 28.475 53.8973 28.5384 53.1373 28.5384ZM54.9233 25.2704C55.5566 25.2704 56.1266 25.2324 56.6333 25.1564C57.1653 25.055 57.6213 24.903 58.0013 24.7004C58.4066 24.4724 58.7233 24.1684 58.9513 23.7884C59.1793 23.3577 59.344 22.8637 59.4453 22.3064C59.572 21.749 59.6353 21.0904 59.6353 20.3304V19.6464H54.0873C53.2513 19.6464 52.6053 19.7097 52.1493 19.8364C51.7186 19.963 51.4273 20.229 51.2753 20.6344C51.1233 21.0397 51.0473 21.6604 51.0473 22.4964C51.0473 23.2817 51.136 23.877 51.3133 24.2824C51.4906 24.6624 51.858 24.9284 52.4153 25.0804C52.998 25.207 53.834 25.2704 54.9233 25.2704ZM71.2832 28.2344V12.2364H67.4072V8.85437H71.2832V3.23037H75.3112V8.85437H79.8332V12.2364H75.3112V28.2344H71.2832ZM90.0941 28.5384C88.7514 28.5384 87.6494 28.3864 86.7881 28.0824C85.9521 27.753 85.3061 27.2717 84.8501 26.6384C84.4194 26.005 84.1281 25.2197 83.9761 24.2824C83.8241 23.345 83.7481 22.243 83.7481 20.9764V8.85437H87.7761V19.3804C87.7761 20.647 87.8141 21.6604 87.8901 22.4204C87.9914 23.155 88.1814 23.7124 88.4601 24.0924C88.7388 24.447 89.1441 24.675 89.6761 24.7764C90.2334 24.8777 90.9681 24.9284 91.8801 24.9284C92.8934 24.9284 93.7041 24.8017 94.3121 24.5484C94.9201 24.295 95.3634 23.915 95.6421 23.4084C95.9461 22.9017 96.1361 22.2684 96.2121 21.5084C96.2881 20.7484 96.3261 19.8617 96.3261 18.8484V8.85437H100.392V28.2344H96.6681L96.5161 25.6504H96.2501C95.9714 26.2584 95.5661 26.7777 95.0341 27.2084C94.5274 27.639 93.8688 27.9684 93.0581 28.1964C92.2474 28.4244 91.2594 28.5384 90.0941 28.5384Z" fill="white"/>
<path d="M113.149 28.2344L104.257 2.09037H108.703L115.961 23.5224H116.151L123.333 2.09037H127.665L118.773 28.2344H113.149ZM134.963 28.5384C133.646 28.5384 132.531 28.361 131.619 28.0064C130.733 27.6517 130.061 27.069 129.605 26.2584C129.149 25.4224 128.921 24.295 128.921 22.8764C128.921 21.3817 129.099 20.2037 129.453 19.3424C129.808 18.4557 130.416 17.8224 131.277 17.4424C132.139 17.0624 133.355 16.8724 134.925 16.8724C135.179 16.8724 135.546 16.885 136.027 16.9104C136.534 16.9104 137.104 16.923 137.737 16.9484C138.396 16.9484 139.042 16.961 139.675 16.9864C140.334 16.9864 140.929 16.999 141.461 17.0244V16.1124C141.461 15.1244 141.398 14.3517 141.271 13.7944C141.145 13.237 140.879 12.8317 140.473 12.5784C140.093 12.2997 139.536 12.1224 138.801 12.0464C138.067 11.9704 137.117 11.9324 135.951 11.9324C135.394 11.9324 134.735 11.9577 133.975 12.0084C133.241 12.0337 132.519 12.0717 131.809 12.1224C131.1 12.173 130.555 12.2364 130.175 12.3124V9.12037C131.214 8.91771 132.354 8.77837 133.595 8.70238C134.837 8.60104 136.078 8.55037 137.319 8.55037C138.763 8.55037 139.967 8.63904 140.929 8.81637C141.917 8.99371 142.715 9.27237 143.323 9.65237C143.931 10.0324 144.387 10.5264 144.691 11.1344C144.995 11.7424 145.211 12.477 145.337 13.3384C145.464 14.1744 145.527 15.137 145.527 16.2264V28.2344H141.803L141.651 25.7264H141.423C140.993 26.537 140.41 27.1577 139.675 27.5884C138.966 27.9937 138.193 28.247 137.357 28.3484C136.521 28.475 135.723 28.5384 134.963 28.5384ZM136.749 25.2704C137.383 25.2704 137.953 25.2324 138.459 25.1564C138.991 25.055 139.447 24.903 139.827 24.7004C140.233 24.4724 140.549 24.1684 140.777 23.7884C141.005 23.3577 141.17 22.8637 141.271 22.3064C141.398 21.749 141.461 21.0904 141.461 20.3304V19.6464H135.913C135.077 19.6464 134.431 19.7097 133.975 19.8364C133.545 19.963 133.253 20.229 133.101 20.6344C132.949 21.0397 132.873 21.6604 132.873 22.4964C132.873 23.2817 132.962 23.877 133.139 24.2824C133.317 24.6624 133.684 24.9284 134.241 25.0804C134.824 25.207 135.66 25.2704 136.749 25.2704ZM157.893 28.5384C156.55 28.5384 155.448 28.3864 154.587 28.0824C153.751 27.753 153.105 27.2717 152.649 26.6384C152.218 26.005 151.927 25.2197 151.775 24.2824C151.623 23.345 151.547 22.243 151.547 20.9764V8.85437H155.575V19.3804C155.575 20.647 155.613 21.6604 155.689 22.4204C155.79 23.155 155.98 23.7124 156.259 24.0924C156.538 24.447 156.943 24.675 157.475 24.7764C158.032 24.8777 158.767 24.9284 159.679 24.9284C160.692 24.9284 161.503 24.8017 162.111 24.5484C162.719 24.295 163.162 23.915 163.441 23.4084C163.745 22.9017 163.935 22.2684 164.011 21.5084C164.087 20.7484 164.125 19.8617 164.125 18.8484V8.85437H168.191V28.2344H164.467L164.315 25.6504H164.049C163.77 26.2584 163.365 26.7777 162.833 27.2084C162.326 27.639 161.668 27.9684 160.857 28.1964C160.046 28.4244 159.058 28.5384 157.893 28.5384ZM174.184 28.2344V0.00037384H178.212V28.2344H174.184ZM185.951 28.2344V12.2364H182.075V8.85437H185.951V3.23037H189.979V8.85437H194.501V12.2364H189.979V28.2344H185.951Z" fill="#6FB018"/>
</svg>
