<svg width="6" height="61" viewBox="0 0 6 61" fill="none" xmlns="http://www.w3.org/2000/svg">
<path d="M-0.00260176 57.6665C-0.0026017 59.1393 1.19131 60.3332 2.66407 60.3332C4.13682 60.3332 5.33073 59.1393 5.33073 57.6665C5.33073 56.1937 4.13682 54.9998 2.66406 54.9998C1.19131 54.9998 -0.00260183 56.1937 -0.00260176 57.6665ZM-0.00260417 2.6665C-0.0026041 4.13926 1.1913 5.33317 2.66406 5.33317C4.13682 5.33317 5.33073 4.13926 5.33073 2.6665C5.33073 1.19374 4.13682 -0.000162825 2.66406 -0.00016276C1.1913 -0.000162696 -0.00260423 1.19374 -0.00260417 2.6665ZM2.66406 57.6665L3.16406 57.6665L3.16406 2.6665L2.66406 2.6665L2.16406 2.6665L2.16406 57.6665L2.66406 57.6665Z" fill="#B8B8B8"/>
</svg>
