<svg width="173" height="84" viewBox="0 0 173 84" fill="none" xmlns="http://www.w3.org/2000/svg">
<path d="M169.5 0.499998L170 0.499998L170 -1.59896e-06L169.5 -1.57791e-06L169.5 0.499998ZM0.499996 5.53596e-06C0.223854 5.54759e-06 -3.64381e-06 0.223863 -3.63128e-06 0.500006C-3.61874e-06 0.776148 0.223854 1.00001 0.499996 1.00001L0.499996 0.500006L0.499996 5.53596e-06ZM169.5 83.1667C170.973 83.1667 172.167 81.9728 172.167 80.5C172.167 79.0272 170.973 77.8333 169.5 77.8333C168.027 77.8333 166.833 79.0272 166.833 80.5C166.833 81.9728 168.027 83.1667 169.5 83.1667ZM169.5 0.499998L169.5 -1.57791e-06L0.499996 5.53596e-06L0.499996 0.500006L0.499996 1.00001L169.5 0.999998L169.5 0.499998ZM169.5 0.499998L169 0.499998L169 80.5L169.5 80.5L170 80.5L170 0.499998L169.5 0.499998Z" fill="#B8B8B8"/>
</svg>
