<svg width="6" height="60" viewBox="0 0 6 60" fill="none" xmlns="http://www.w3.org/2000/svg">
<path d="M-0.00260172 56.5C-0.00260165 57.9728 1.19131 59.1667 2.66407 59.1667C4.13682 59.1667 5.33073 57.9728 5.33073 56.5C5.33073 55.0272 4.13682 53.8333 2.66406 53.8333C1.19131 53.8333 -0.00260178 55.0272 -0.00260172 56.5ZM3.16406 0.5C3.16406 0.223858 2.9402 -1.20706e-08 2.66406 0C2.38792 1.20706e-08 2.16406 0.223858 2.16406 0.5L2.66406 0.5L3.16406 0.5ZM2.66406 56.5L3.16406 56.5L3.16406 0.5L2.66406 0.5L2.16406 0.5L2.16406 56.5L2.66406 56.5Z" fill="#B8B8B8"/>
</svg>
