<svg width="84" height="6" viewBox="0 0 84 6" fill="none" xmlns="http://www.w3.org/2000/svg">
<path d="M80.6641 5.33318C82.1368 5.33318 83.3307 4.13927 83.3307 2.66651C83.3307 1.19375 82.1368 -0.000155816 80.6641 -0.000155944C79.1913 -0.000156073 77.9974 1.19375 77.9974 2.66651C77.9974 4.13927 79.1913 5.33318 80.6641 5.33318ZM2.66406 5.33317C4.13682 5.33317 5.33073 4.13926 5.33073 2.6665C5.33073 1.19374 4.13682 -0.000162632 2.66406 -0.00016276C1.1913 -0.000162889 -0.00260404 1.19374 -0.00260417 2.6665C-0.0026043 4.13926 1.1913 5.33317 2.66406 5.33317ZM80.6641 2.66651L80.6641 2.16651L2.66406 2.1665L2.66406 2.6665L2.66406 3.1665L80.6641 3.16651L80.6641 2.66651Z" fill="#B8B8B8"/>
</svg>
