<svg width="143" height="88" viewBox="0 0 143 88" fill="none" xmlns="http://www.w3.org/2000/svg">
<path d="M2.66406 84.6665L2.16406 84.6665L2.16406 85.1665L2.66406 85.1665L2.66406 84.6665ZM139.664 81.9998C138.191 81.9998 136.997 83.1937 136.997 84.6665C136.997 86.1393 138.191 87.3332 139.664 87.3332C141.137 87.3332 142.331 86.1393 142.331 84.6665C142.331 83.1937 141.137 81.9998 139.664 81.9998ZM2.66406 -0.000156775C1.1913 -0.00015671 -0.00260858 1.19375 -0.00260852 2.66651C-0.00260845 4.13927 1.1913 5.33318 2.66406 5.33318C4.13682 5.33318 5.33072 4.13927 5.33072 2.66651C5.33072 1.19375 4.13682 -0.000156839 2.66406 -0.000156775ZM2.66406 84.6665L2.66406 85.1665L139.664 85.1665L139.664 84.6665L139.664 84.1665L2.66406 84.1665L2.66406 84.6665ZM2.66406 84.6665L3.16406 84.6665L3.16406 2.66651L2.66406 2.66651L2.16406 2.66651L2.16406 84.6665L2.66406 84.6665Z" fill="#B8B8B8"/>
</svg>
