<svg width="143" height="88" viewBox="0 0 143 88" fill="none" xmlns="http://www.w3.org/2000/svg">
<path d="M139.664 84.6665L140.164 84.6665L140.164 85.1665L139.664 85.1665L139.664 84.6665ZM2.66406 81.9998C4.13682 81.9998 5.33073 83.1937 5.33073 84.6665C5.33073 86.1393 4.13682 87.3332 2.66406 87.3332C1.1913 87.3332 -0.00260782 86.1393 -0.00260775 84.6665C-0.00260769 83.1937 1.1913 81.9998 2.66406 81.9998ZM139.664 -0.000156775C141.137 -0.00015671 142.331 1.19375 142.331 2.66651C142.331 4.13927 141.137 5.33318 139.664 5.33318C138.191 5.33318 136.997 4.13927 136.997 2.66651C136.997 1.19375 138.191 -0.000156839 139.664 -0.000156775ZM139.664 84.6665L139.664 85.1665L2.66406 85.1665L2.66406 84.6665L2.66406 84.1665L139.664 84.1665L139.664 84.6665ZM139.664 84.6665L139.164 84.6665L139.164 2.66651L139.664 2.66651L140.164 2.66651L140.164 84.6665L139.664 84.6665Z" fill="#B8B8B8"/>
</svg>
