<svg width="6" height="61" viewBox="0 0 6 61" fill="none" xmlns="http://www.w3.org/2000/svg">
<path d="M0.0013045 57.5C0.00130456 58.9728 1.19521 60.1667 2.66797 60.1667C4.14073 60.1667 5.33464 58.9728 5.33464 57.5C5.33464 56.0272 4.14073 54.8333 2.66797 54.8333C1.19521 54.8333 0.00130443 56.0272 0.0013045 57.5ZM3.16797 0.5C3.16797 0.223858 2.94411 -1.20706e-08 2.66797 0C2.39183 1.20706e-08 2.16797 0.223858 2.16797 0.5L2.66797 0.5L3.16797 0.5ZM2.66797 57.5L3.16797 57.5L3.16797 0.5L2.66797 0.5L2.16797 0.5L2.16797 57.5L2.66797 57.5Z" fill="#B8B8B8"/>
</svg>
