<svg width="172" height="84" viewBox="0 0 172 84" fill="none" xmlns="http://www.w3.org/2000/svg">
<path d="M2.66407 0.499998L2.16407 0.499998L2.16407 -1.55687e-06L2.66407 -1.53582e-06L2.66407 0.499998ZM170.664 5.53596e-06C170.94 5.54759e-06 171.164 0.223863 171.164 0.500006C171.164 0.776148 170.94 1.00001 170.664 1.00001L170.664 0.500006L170.664 5.53596e-06ZM2.66406 83.1667C1.1913 83.1667 -0.00260256 81.9728 -0.0026025 80.5C-0.00260243 79.0272 1.1913 77.8333 2.66406 77.8333C4.13682 77.8333 5.33073 79.0272 5.33073 80.5C5.33073 81.9728 4.13682 83.1667 2.66406 83.1667ZM2.66407 0.499998L2.66407 -1.53582e-06L170.664 5.53596e-06L170.664 0.500006L170.664 1.00001L2.66407 0.999998L2.66407 0.499998ZM2.66407 0.499998L3.16407 0.499998L3.16406 80.5L2.66406 80.5L2.16406 80.5L2.16407 0.499998L2.66407 0.499998Z" fill="#B8B8B8"/>
</svg>
