<svg width="54" height="54" viewBox="0 0 54 54" fill="none" xmlns="http://www.w3.org/2000/svg">
<path d="M27 54C20.1 54 14.0875 51.7125 8.9625 47.1375C3.8375 42.5625 0.9 36.85 0.15 30H6.3C7 35.2 9.3125 39.5 13.2375 42.9C17.1625 46.3 21.75 48 27 48C32.85 48 37.8125 45.9625 41.8875 41.8875C45.9625 37.8125 48 32.85 48 27C48 21.15 45.9625 16.1875 41.8875 12.1125C37.8125 8.0375 32.85 6 27 6C23.55 6 20.325 6.8 17.325 8.4C14.325 10 11.8 12.2 9.75 15H18V21H0V3H6V10.05C8.55 6.85 11.6625 4.375 15.3375 2.625C19.0125 0.875 22.9 0 27 0C30.75 0 34.2625 0.7125 37.5375 2.1375C40.8125 3.5625 43.6625 5.4875 46.0875 7.9125C48.5125 10.3375 50.4375 13.1875 51.8625 16.4625C53.2875 19.7375 54 23.25 54 27C54 30.75 53.2875 34.2625 51.8625 37.5375C50.4375 40.8125 48.5125 43.6625 46.0875 46.0875C43.6625 48.5125 40.8125 50.4375 37.5375 51.8625C34.2625 53.2875 30.75 54 27 54ZM35.4 39.6L24 28.2V12H30V25.8L39.6 35.4L35.4 39.6Z" fill="#6FB018"/>
</svg>
