<svg width="54" height="54" viewBox="0 0 54 54" fill="none" xmlns="http://www.w3.org/2000/svg">
<path d="M9.69733 21.5121L14.9501 23.7318C15.5786 22.4762 16.2296 21.2655 16.903 20.0996C17.5764 18.9337 18.3172 17.7678 19.1253 16.6019L15.3541 15.8621L9.69733 21.5121ZM19.26 27.0949L26.937 34.6956C28.8226 33.9781 30.8429 32.8795 32.9979 31.3997C35.1528 29.92 37.1731 28.2384 39.0587 26.355C42.2014 23.2161 44.6594 19.7297 46.4327 15.8957C48.2061 12.0617 48.9805 8.53043 48.756 5.30182C45.5236 5.07761 41.9769 5.85113 38.1159 7.62238C34.2549 9.39363 30.7531 11.8487 27.6105 14.9876C25.7249 16.871 24.0413 18.8889 22.5598 21.0413C21.0782 23.1937 19.9783 25.2116 19.26 27.0949ZM31.247 22.7229C30.2144 21.6915 29.6981 20.4247 29.6981 18.9225C29.6981 17.4203 30.2144 16.1535 31.247 15.1222C32.2795 14.0908 33.5591 13.5751 35.0855 13.5751C36.6119 13.5751 37.8914 14.0908 38.924 15.1222C39.9566 16.1535 40.4729 17.4203 40.4729 18.9225C40.4729 20.4247 39.9566 21.6915 38.924 22.7229C37.8914 23.7542 36.6119 24.2699 35.0855 24.2699C33.5591 24.2699 32.2795 23.7542 31.247 22.7229ZM32.5265 44.3142L38.1832 38.6641L37.4425 34.8974C36.2752 35.7046 35.1079 36.4332 33.9407 37.0834C32.7734 37.7336 31.5612 38.3726 30.3042 39.0004L32.5265 44.3142ZM53.6047 0.391642C54.4577 5.8175 53.9302 11.0976 52.0222 16.232C50.1141 21.3664 46.8256 26.2654 42.1565 30.9289L43.5033 37.5879C43.6829 38.4847 43.638 39.3592 43.3686 40.2112C43.0993 41.0631 42.6503 41.803 42.0218 42.4308L30.7082 53.731L25.0514 40.4802L13.5359 28.9783L0.26937 23.3282L11.5156 12.0281C12.1441 11.4003 12.8961 10.9519 13.7716 10.6828C14.647 10.4138 15.5337 10.3689 16.4316 10.5483L23.0985 11.8936C27.7676 7.23002 32.6612 3.93414 37.7792 2.00595C42.8972 0.07775 48.1724 -0.460352 53.6047 0.391642ZM5.05069 37.5206C6.62202 35.9512 8.54129 35.1552 10.8085 35.1328C13.0757 35.1104 14.995 35.8839 16.5663 37.4534C18.1376 39.0228 18.912 40.9398 18.8896 43.2043C18.8672 45.4689 18.0703 47.3858 16.4989 48.9553C15.3766 50.0763 13.5022 51.0404 10.8758 51.8476C8.24947 52.6548 4.62419 53.3722 0 54C0.628531 49.3813 1.34685 45.7603 2.15496 43.1371C2.96307 40.5138 3.92832 38.6417 5.05069 37.5206ZM8.88922 41.2874C8.44027 41.7358 7.99132 42.5541 7.54237 43.7424C7.09342 44.9307 6.77915 46.1303 6.59957 47.341C7.81174 47.1616 9.01268 46.8589 10.2024 46.4329C11.3921 46.007 12.2115 45.5697 12.6604 45.1213C13.1991 44.5832 13.491 43.933 13.5359 43.1707C13.5808 42.4084 13.3338 41.7582 12.7951 41.2201C12.2564 40.682 11.6054 40.4242 10.8422 40.4466C10.0789 40.469 9.42796 40.7493 8.88922 41.2874Z" fill="#6FB018"/>
</svg>
