<svg width="60" height="63" viewBox="0 0 60 63" fill="none" xmlns="http://www.w3.org/2000/svg">
<path d="M10 6.66667C9.07407 6.66667 8.28704 6.99074 7.63889 7.63889C6.99074 8.28704 6.66667 9.07407 6.66667 10C6.66667 10.9259 6.99074 11.713 7.63889 12.3611C8.28704 13.0093 9.07407 13.3333 10 13.3333C10.9259 13.3333 11.713 13.0093 12.3611 12.3611C13.0093 11.713 13.3333 10.9259 13.3333 10C13.3333 9.07407 13.0093 8.28704 12.3611 7.63889C11.713 6.99074 10.9259 6.66667 10 6.66667ZM10 28.8889C9.07407 28.8889 8.28704 29.213 7.63889 29.8611C6.99074 30.5093 6.66667 31.2963 6.66667 32.2222C6.66667 33.1481 6.99074 33.9352 7.63889 34.5833C8.28704 35.2315 9.07407 35.5556 10 35.5556C10.9259 35.5556 11.713 35.2315 12.3611 34.5833C13.0093 33.9352 13.3333 33.1481 13.3333 32.2222C13.3333 31.2963 13.0093 30.5093 12.3611 29.8611C11.713 29.213 10.9259 28.8889 10 28.8889ZM2.22222 0H37.7778C38.4074 0 38.9352 0.212963 39.3611 0.638889C39.787 1.06481 40 1.59259 40 2.22222V17.7778C40 18.4074 39.787 18.9352 39.3611 19.3611C38.9352 19.787 38.4074 20 37.7778 20H2.22222C1.59259 20 1.06481 19.787 0.638889 19.3611C0.212963 18.9352 0 18.4074 0 17.7778V2.22222C0 1.59259 0.212963 1.06481 0.638889 0.638889C1.06481 0.212963 1.59259 0 2.22222 0ZM4.44444 4.44444V15.5556H35.5556V4.44444H4.44444ZM2.22222 22.2222H37.7778C38.4074 22.2222 38.9352 22.4352 39.3611 22.8611C39.787 23.287 40 23.8148 40 24.4444V40C40 40.6296 39.787 41.1574 39.3611 41.5833C38.9352 42.0093 38.4074 42.2222 37.7778 42.2222H2.22222C1.59259 42.2222 1.06481 42.0093 0.638889 41.5833C0.212963 41.1574 0 40.6296 0 40V24.4444C0 23.8148 0.212963 23.287 0.638889 22.8611C1.06481 22.4352 1.59259 22.2222 2.22222 22.2222ZM4.44444 26.6667V37.7778H35.5556V26.6667H4.44444Z" fill="#6FB018"/>
<path d="M31.1313 49.4159C30.4208 48.178 29.888 46.9076 29.5328 45.6045C29.1776 44.3015 29 42.9659 29 41.5977C29 37.2326 30.5016 33.5189 33.5047 30.4568C36.5078 27.3947 40.1729 25.8636 44.5 25.8636H44.8391L41.7391 22.7364L44.4516 20L52.2016 27.8182L44.4516 35.6364L41.7391 32.9L44.8391 29.7727H44.5C41.2708 29.7727 38.526 30.921 36.2656 33.2176C34.0052 35.5142 32.875 38.3076 32.875 41.5977C32.875 42.4447 32.9719 43.2754 33.1656 44.0898C33.3594 44.9042 33.65 45.7023 34.0375 46.4841L31.1313 49.4159ZM44.5484 63L36.7984 55.1818L44.5484 47.3636L47.2609 50.1L44.1609 53.2273H44.5C47.7292 53.2273 50.474 52.079 52.7344 49.7824C54.9948 47.4858 56.125 44.6924 56.125 41.4023C56.125 40.5553 56.0281 39.7246 55.8344 38.9102C55.6406 38.0958 55.35 37.2977 54.9625 36.5159L57.8688 33.5841C58.5792 34.822 59.112 36.0924 59.4672 37.3955C59.8224 38.6985 60 40.0341 60 41.4023C60 45.7674 58.4984 49.4811 55.4953 52.5432C52.4922 55.6053 48.8271 57.1364 44.5 57.1364H44.1609L47.2609 60.2636L44.5484 63Z" fill="#6FB018"/>
</svg>
