<svg width="24" height="24" viewBox="0 0 24 24" fill="none" xmlns="http://www.w3.org/2000/svg">
<path d="M21.4737 0.000179095H1.715C1.49255 -0.00290451 1.27168 0.0379195 1.06503 0.120314C0.858377 0.202708 0.670008 0.325054 0.510705 0.480347C0.351403 0.63564 0.224295 0.820829 0.136661 1.02531C0.049027 1.2298 0.00258691 1.44956 0 1.67201V21.6628C0.0128333 22.5962 0.7805 23.3452 1.715 23.3335H21.4737C21.696 23.3366 21.9168 23.2958 22.1234 23.2135C22.3299 23.1312 22.5183 23.0089 22.6776 22.8538C22.8368 22.6986 22.964 22.5135 23.0517 22.3092C23.1394 22.1048 23.1859 21.8852 23.1887 21.6628V1.67201C23.1861 1.44946 23.1396 1.2296 23.0519 1.02504C22.9642 0.820479 22.837 0.635237 22.6775 0.479929C22.5181 0.324621 22.3296 0.202299 22.1228 0.119975C21.916 0.03765 21.695 -0.00305936 21.4725 0.000179095H21.4737ZM7.03033 19.5325H3.528V8.99635H7.03033V19.5325ZM5.56617 7.56018C5.47054 7.56529 5.37469 7.56451 5.27917 7.55785H5.25583C5.00448 7.57449 4.7524 7.53893 4.51546 7.45343C4.27851 7.36792 4.06182 7.23431 3.87902 7.061C3.69621 6.88768 3.55125 6.67842 3.45324 6.44636C3.35524 6.2143 3.30631 5.96448 3.30954 5.71259C3.31277 5.46071 3.36809 5.21222 3.47201 4.98276C3.57593 4.75329 3.72621 4.54781 3.9134 4.37924C4.10058 4.21067 4.32063 4.08265 4.55969 4.00325C4.79875 3.92385 5.05166 3.89477 5.3025 3.91785C5.7855 3.88288 6.26261 4.04122 6.62887 4.35803C6.99513 4.67485 7.22053 5.12418 7.2555 5.60718C7.29046 6.09018 7.13212 6.56729 6.81531 6.93355C6.4985 7.29981 6.04917 7.52521 5.56617 7.56018ZM19.6583 19.5325H16.156V13.8975C16.156 12.48 15.6497 11.514 14.3827 11.514C13.9876 11.5159 13.6028 11.6401 13.2811 11.8694C12.9594 12.0988 12.7166 12.4221 12.586 12.795C12.4969 13.0705 12.4574 13.3597 12.4693 13.649V19.5325H8.96933C8.96933 19.529 9.016 9.98451 8.96933 8.99751H12.4717V10.4908C12.7883 9.93981 13.2498 9.48609 13.8062 9.179C14.3626 8.8719 14.9925 8.72319 15.6275 8.74901C17.9317 8.74901 19.6595 10.2552 19.6595 13.4915L19.6583 19.5325Z" fill="white"/>
</svg>
