<svg width="191" height="190" viewBox="0 0 191 190" fill="none" xmlns="http://www.w3.org/2000/svg">
<path d="M49.9012 51.6015C48.9679 52.5713 47.9616 53.2841 46.8824 53.74C45.7894 54.1825 44.7178 54.3254 43.6677 54.1688C42.6176 54.0121 41.6769 53.5338 40.8456 52.7338L43.2856 50.1984C43.9624 50.743 44.7084 50.9939 45.5235 50.9511C46.3519 50.8944 47.1461 50.4712 47.9061 49.6815C48.6928 48.8641 49.1122 48.0401 49.1643 47.2096C49.2025 46.3657 48.9099 45.6438 48.2864 45.0438C47.8015 44.5771 47.2666 44.3426 46.6818 44.3402C46.1104 44.3239 45.5348 44.4506 44.9553 44.7201C44.389 44.9757 43.6489 45.3842 42.7349 45.9457C41.5789 46.6478 40.5895 47.1768 39.7668 47.5325C38.9436 47.8611 38.0618 47.9732 37.1214 47.8688C36.1811 47.7644 35.2607 47.2789 34.3601 46.4122C33.5289 45.6122 33.0015 44.7044 32.7781 43.6888C32.5546 42.6732 32.6366 41.6313 33.0241 40.5631C33.4116 39.495 34.0787 38.4691 35.0253 37.4854C36.372 36.0861 37.8253 35.2831 39.3852 35.0764C40.9446 34.8425 42.3806 35.2638 43.6931 36.3401L41.1731 38.9586C40.6066 38.4935 39.9164 38.3096 39.1023 38.4068C38.2882 38.504 37.5212 38.9266 36.8012 39.6748C36.1478 40.3536 35.7877 41.0745 35.7207 41.8373C35.6538 42.6001 35.9458 43.2949 36.597 43.9216C37.0404 44.3482 37.5342 44.5699 38.0784 44.5867C38.6222 44.5763 39.1772 44.4432 39.7435 44.1876C40.3097 43.932 41.0365 43.5373 41.9238 43.0035C43.107 42.3009 44.1169 41.7784 44.9535 41.4359C45.8034 41.0797 46.7054 40.9604 47.6596 41.0781C48.6133 41.1686 49.5473 41.6539 50.4617 42.5339C51.196 43.2405 51.6954 44.1081 51.9599 45.1365C52.2377 46.1511 52.2109 47.2328 51.8793 48.3814C51.5472 49.5029 50.8879 50.5763 49.9012 51.6015ZM68.3652 21.6394C69.4998 21.1154 70.6212 20.8834 71.7291 20.9436C72.8545 20.9957 73.884 21.3674 74.8175 22.0588C75.7685 22.7421 76.5463 23.7384 77.151 25.0476L81.0813 33.5576L78.1225 34.9242L74.3977 26.8593C73.8011 25.5675 73.0227 24.7304 72.0624 24.3479C71.094 23.9479 70.0512 24.006 68.934 24.5219C67.8168 25.0379 67.0877 25.7982 66.7469 26.8028C66.4154 27.7819 66.548 28.9174 67.1446 30.2092L70.8694 38.274L67.9105 39.6406L64.1857 31.5757C63.5891 30.2839 62.8107 29.4468 61.8504 29.0643C60.882 28.6643 59.8392 28.7224 58.722 29.2383C57.6048 29.7543 56.8757 30.5146 56.5349 31.5192C56.2034 32.4983 56.336 33.6338 56.9326 34.9256L60.6574 42.9904L57.6723 44.3691L51.0089 29.9413L53.9939 28.5627L54.7558 30.2123C54.9705 29.3931 55.3765 28.6443 55.974 27.9659C56.5714 27.2876 57.2978 26.7509 58.1532 26.3558C59.3053 25.8237 60.4481 25.5924 61.5816 25.662C62.715 25.7315 63.7398 26.116 64.6559 26.8155C64.6892 25.7411 65.0515 24.7371 65.7429 23.8036C66.4263 22.8526 67.3003 22.1312 68.3652 21.6394ZM83.386 24.7739C83.3189 23.1794 83.586 21.7536 84.1875 20.4966C84.8081 19.2388 85.671 18.2498 86.7761 17.5297C87.8997 16.7896 89.1531 16.3904 90.5363 16.3322C91.785 16.2796 92.881 16.4836 93.8241 16.9443C94.7857 17.385 95.5604 17.9586 96.1483 18.6652L96.0512 16.3598L99.3652 16.2203L100.034 32.0984L96.7197 32.2379L96.6202 29.8749C96.0946 30.6476 95.362 31.3039 94.4225 31.8438C93.483 32.3838 92.3984 32.6796 91.1689 32.7314C89.8049 32.7888 88.5416 32.4956 87.3791 31.8517C86.2157 31.1886 85.2715 30.2468 84.5465 29.0264C83.84 27.7859 83.4531 26.3685 83.386 24.7739ZM96.3848 24.2844C96.3387 23.1894 96.0682 22.2481 95.5731 21.4607C95.0973 20.6724 94.4855 20.0823 93.7377 19.6904C92.9899 19.2985 92.1933 19.1203 91.348 19.1559C90.5027 19.1915 89.7239 19.436 89.0117 19.8894C88.2987 20.3235 87.7286 20.9537 87.3015 21.78C86.8928 22.5863 86.7115 23.5369 86.7576 24.632C86.8037 25.727 87.0651 26.6783 87.5417 27.4858C88.0375 28.2924 88.6598 28.9013 89.4084 29.3125C90.1754 29.7036 90.972 29.8817 91.7981 29.847C92.6434 29.8114 93.4221 29.5669 94.1344 29.1135C94.8466 28.6601 95.4067 28.0207 95.8145 27.1952C96.2408 26.3497 96.4309 25.3795 96.3848 24.2844ZM110.133 19.7687C110.764 19.0718 111.509 18.5844 112.369 18.3063C113.252 18.0133 114.231 17.9748 115.305 18.1911L114.634 21.5276L113.814 21.3626C112.551 21.1084 111.525 21.2354 110.736 21.7435C109.966 22.2555 109.422 23.3031 109.103 24.8866L107.453 33.0865L104.23 32.4378L107.365 16.858L110.589 17.5067L110.133 19.7687ZM123.322 24.0512L120.136 32.251C119.92 32.8066 119.889 33.2586 120.042 33.607C120.221 33.9445 120.624 34.2351 121.251 34.4788L123.133 35.2099L122.141 37.764L119.721 36.8239C118.341 36.2878 117.409 35.5543 116.925 34.6236C116.44 33.6929 116.48 32.5016 117.044 31.0498L120.23 22.85L118.482 22.1711L119.454 19.6708L121.201 20.3497L122.632 16.6665L125.724 17.8677L124.293 21.5509L127.896 22.9505L126.924 25.4508L123.322 24.0512ZM149.35 32.7429C150.934 34.1742 152.04 35.7317 152.669 37.4153C153.326 39.0976 153.459 40.7994 153.069 42.5207C152.707 44.2407 151.842 45.8566 150.475 47.3685C149.108 48.8804 147.594 49.8961 145.932 50.4154C144.284 50.9477 142.59 50.9717 140.851 50.4876C139.138 50.0021 137.49 49.0436 135.907 47.6122L131.05 43.2214L144.494 28.352L149.35 32.7429ZM137.706 45.6225C139.446 47.1957 141.205 47.9308 142.983 47.8276C144.762 47.7244 146.424 46.817 147.972 45.1054C149.532 43.3796 150.287 41.6126 150.237 39.8045C150.187 37.9964 149.292 36.3058 147.551 34.7326L145.134 32.5468L135.288 43.4368L137.706 45.6225ZM148.903 63.3675C148.145 62.0736 147.749 60.734 147.717 59.3486C147.702 57.9535 148.05 56.6462 148.761 55.4266C149.489 54.1973 150.558 53.1694 151.968 52.3428C153.362 51.5259 154.778 51.1083 156.216 51.0899C157.654 51.0716 158.974 51.423 160.177 52.1443C161.38 52.8655 162.366 53.8813 163.134 55.1918C163.902 56.5022 164.307 57.8584 164.349 59.2604C164.391 60.6624 164.052 61.9863 163.334 63.2322C162.616 64.478 161.56 65.5094 160.166 66.3263C158.773 67.1432 157.353 67.5525 155.905 67.5543C154.457 67.5561 153.114 67.1846 151.875 66.4399C150.662 65.7021 149.671 64.6779 148.903 63.3675ZM151.367 61.9234C151.794 62.6532 152.367 63.2312 153.085 63.6573C153.813 64.1 154.642 64.3162 155.572 64.3059C156.502 64.2955 157.464 63.9986 158.46 63.4151C159.455 62.8316 160.181 62.1498 160.637 61.3696C161.11 60.5796 161.336 59.7673 161.315 58.9328C161.294 58.0982 161.069 57.316 160.641 56.5862C160.213 55.8563 159.641 55.2783 158.923 54.8522C158.215 54.4427 157.405 54.2597 156.495 54.3032C155.6 54.3369 154.656 54.6456 153.661 55.2291C152.184 56.0946 151.259 57.1388 150.883 58.3618C150.534 59.5916 150.696 60.7788 151.367 61.9234ZM161.794 70.3159C163.379 69.9154 164.848 69.8813 166.201 70.2136C167.578 70.5598 168.736 71.219 169.676 72.1912C170.616 73.1635 171.272 74.3859 171.644 75.8586C172.115 77.7228 172.056 79.3739 171.468 80.8118C170.903 82.2636 169.854 83.4113 168.322 84.2547L167.453 80.8152C168.146 80.3424 168.63 79.7442 168.903 79.0207C169.176 78.2971 169.195 77.4693 168.96 76.5372C168.63 75.2322 167.9 74.3061 166.77 73.7587C165.663 73.2253 164.28 73.1682 162.621 73.5876C160.962 74.007 159.763 74.7166 159.024 75.7165C158.29 76.7351 158.088 77.8968 158.417 79.2018C158.884 81.0473 160.004 82.0634 161.776 82.25L162.646 85.6895C160.967 85.6379 159.505 85.1147 158.262 84.1199C157.038 83.1204 156.195 81.7072 155.733 79.8803C155.361 78.4076 155.357 77.0202 155.722 75.7181C156.106 74.4113 156.812 73.2809 157.84 72.3269C158.892 71.3868 160.21 70.7165 161.794 70.3159ZM173.318 105.068L157.436 104.489L157.556 101.203L159.429 101.272C158.795 100.729 158.301 100.028 157.948 99.1684C157.613 98.3288 157.462 97.4382 157.497 96.4967C157.542 95.2477 157.842 94.133 158.398 93.1527C158.952 92.1916 159.749 91.4414 160.789 90.9021C161.827 90.3819 163.067 90.1481 164.508 90.2006L173.847 90.541L173.728 93.798L164.88 93.4755C163.458 93.4237 162.35 93.7393 161.555 94.4222C160.78 95.1059 160.37 96.0626 160.325 97.2924C160.28 98.5222 160.619 99.5062 161.343 100.245C162.085 101.003 163.167 101.408 164.589 101.46L173.438 101.782L173.318 105.068ZM163.359 132.726C162.848 133.866 162.156 134.778 161.281 135.461C160.399 136.162 159.379 136.558 158.221 136.651C157.055 136.761 155.814 136.522 154.498 135.933L145.942 132.103L147.273 129.128L155.382 132.758C156.68 133.339 157.817 133.458 158.792 133.115C159.785 132.78 160.533 132.051 161.036 130.927C161.538 129.804 161.588 128.752 161.184 127.771C160.791 126.815 159.944 126.047 158.646 125.465L150.537 121.836L151.869 118.861L159.977 122.49C161.276 123.072 162.413 123.191 163.388 122.848C164.38 122.513 165.128 121.784 165.631 120.66C166.134 119.537 166.183 118.485 165.78 117.504C165.386 116.548 164.54 115.78 163.241 115.198L155.133 111.569L156.476 108.568L170.981 115.06L169.638 118.061L167.98 117.319C168.356 118.078 168.543 118.909 168.538 119.813C168.534 120.717 168.339 121.599 167.954 122.459C167.436 123.617 166.727 124.542 165.827 125.235C164.927 125.928 163.902 126.312 162.752 126.387C163.433 127.218 163.82 128.213 163.913 129.371C164.023 130.537 163.838 131.655 163.359 132.726ZM139.091 151.339C138.675 150.912 138.326 150.5 138.045 150.103L146.731 141.617C145.776 140.777 144.727 140.377 143.584 140.418C142.441 140.459 141.43 140.91 140.55 141.769C139.284 143.006 138.907 144.409 139.419 145.978L136.882 148.457C136.204 147.076 135.99 145.605 136.24 144.044C136.489 142.511 137.281 141.092 138.615 139.789C139.701 138.727 140.913 138.014 142.25 137.649C143.586 137.311 144.932 137.34 146.287 137.737C147.642 138.161 148.89 138.957 150.033 140.126C151.175 141.296 151.942 142.549 152.334 143.886C152.726 145.25 152.731 146.59 152.348 147.904C151.952 149.232 151.197 150.44 150.083 151.528C149.01 152.576 147.825 153.276 146.53 153.628C145.234 153.98 143.935 153.958 142.635 153.562C141.347 153.18 140.166 152.439 139.091 151.339ZM142.272 149.683C143.132 150.536 144.12 150.928 145.236 150.86C146.352 150.791 147.357 150.32 148.251 149.447C149.062 148.654 149.502 147.714 149.569 146.627C149.649 145.554 149.315 144.524 148.565 143.536L142.272 149.683ZM131.079 165.12C129.974 165.704 128.866 165.995 127.757 165.994C126.63 166.001 125.582 165.685 124.613 165.044C123.645 164.403 122.824 163.445 122.15 162.17L117.774 153.88L120.656 152.358L124.804 160.214C125.468 161.473 126.29 162.267 127.269 162.598C128.257 162.946 129.295 162.833 130.384 162.259C131.472 161.684 132.16 160.886 132.447 159.865C132.726 158.87 132.533 157.743 131.869 156.484L127.722 148.629L130.629 147.094L138.049 161.147L135.141 162.683L134.293 161.076C134.122 161.905 133.756 162.674 133.195 163.383C132.618 164.102 131.912 164.681 131.079 165.12ZM113.528 169.084L111.332 160.566C111.183 159.989 110.945 159.603 110.617 159.41C110.276 159.24 109.779 159.239 109.127 159.406L107.172 159.91L106.488 157.257L109.002 156.609C110.436 156.24 111.621 156.292 112.557 156.765C113.493 157.239 114.155 158.23 114.544 159.738L116.74 168.257L118.555 167.789L119.224 170.386L117.409 170.854L118.395 174.68L115.183 175.508L114.197 171.682L110.454 172.646L109.785 170.049L113.528 169.084ZM95.9104 168.15C95.6667 170.096 94.9996 171.786 93.9093 173.219C92.8 174.65 91.4188 175.698 89.7658 176.363C88.0914 177.044 86.3289 177.269 84.4782 177.037C82.3604 176.772 80.5468 176.012 79.0375 174.757C77.5066 173.519 76.4887 171.899 75.9836 169.898L79.9043 170.389C80.288 171.503 80.9055 172.375 81.7568 173.005C82.6081 173.635 83.6347 174.025 84.8367 174.175C86.1531 174.34 87.3635 174.192 88.4679 173.729C89.5723 173.267 90.4895 172.519 91.2195 171.487C91.9305 170.452 92.378 169.2 92.562 167.731C92.7461 166.262 92.6212 164.938 92.1874 163.76C91.7346 162.579 91.0313 161.619 90.0775 160.879C89.1213 160.159 87.985 159.716 86.6685 159.551C85.4665 159.401 84.3753 159.526 83.395 159.926C82.4147 160.327 81.6012 161.019 80.9547 162.004L77.0339 161.513C78.017 159.698 79.403 158.38 81.1919 157.557C82.9618 156.733 84.9056 156.453 87.0234 156.718C88.8931 156.952 90.547 157.595 91.9848 158.648C93.4203 159.719 94.4992 161.084 95.2214 162.745C95.9245 164.402 96.1542 166.204 95.9104 168.15ZM68.1413 151.39C69.494 152.038 70.5711 152.927 71.3729 154.057C72.1663 155.205 72.6094 156.483 72.702 157.892C72.7863 159.318 72.4754 160.768 71.7693 162.242C71.0715 163.699 70.1319 164.837 68.9503 165.657C67.7687 166.477 66.4776 166.924 65.077 166.999C63.6764 167.075 62.2912 166.784 60.9212 166.128C59.5512 165.472 58.4567 164.574 57.6376 163.436C56.8185 162.297 56.3582 161.011 56.2565 159.576C56.1548 158.142 56.4529 156.696 57.1507 155.239C57.8485 153.783 58.7968 152.649 59.9958 151.837C61.1947 151.025 62.5159 150.582 63.9595 150.506C65.3774 150.439 66.7714 150.733 68.1413 151.39ZM66.9077 153.965C66.1447 153.599 65.3465 153.441 64.5131 153.489C63.6623 153.529 62.8544 153.814 62.0893 154.343C61.3243 154.872 60.6925 155.657 60.1941 156.697C59.6956 157.738 59.4756 158.709 59.5338 159.611C59.5838 160.53 59.851 161.33 60.3355 162.01C60.82 162.69 61.4438 163.212 62.2068 163.578C62.9698 163.943 63.7681 164.102 64.6015 164.053C65.4175 163.997 66.1908 163.695 66.9212 163.15C67.6433 162.622 68.2535 161.837 68.752 160.797C69.4913 159.253 69.6743 157.87 69.301 156.646C68.902 155.432 68.1043 154.538 66.9077 153.965ZM41.2611 152.695C40.3375 151.853 39.6882 150.909 39.3133 149.865C38.9241 148.808 38.8668 147.715 39.1413 146.586C39.4158 145.457 40.0388 144.36 41.0104 143.294L47.3255 136.367L49.7341 138.563L43.7492 145.128C42.7906 146.179 42.3216 147.222 42.3422 148.255C42.3497 149.303 42.8082 150.241 43.7177 151.07C44.6271 151.899 45.6109 152.276 46.669 152.2C47.7 152.125 48.6948 151.562 49.6534 150.51L55.6382 143.945L58.0681 146.16L47.3614 157.905L44.9316 155.69L46.1557 154.347C45.3174 154.467 44.4697 154.384 43.6126 154.097C42.7412 153.797 41.9574 153.329 41.2611 152.695ZM31.5833 137.546L38.8458 132.581C39.3379 132.245 39.6191 131.89 39.6895 131.516C39.7331 131.137 39.565 130.669 39.1852 130.114L38.0459 128.447L40.308 126.901L41.7728 129.044C42.6083 130.266 42.9627 131.398 42.8361 132.439C42.7095 133.481 42.0033 134.441 40.7175 135.32L33.455 140.284L34.5129 141.832L32.2985 143.345L31.2406 141.798L27.9784 144.027L26.1067 141.289L29.3689 139.059L27.1879 135.868L29.4024 134.355L31.5833 137.546ZM25.2048 126.884C24.2705 126.782 23.4384 126.465 22.7085 125.932C21.9531 125.389 21.3476 124.619 20.8921 123.622L23.9876 122.208L24.3352 122.969C24.8707 124.14 25.5756 124.896 26.4499 125.237C27.3163 125.56 28.4839 125.386 29.953 124.714L37.5606 121.238L38.9272 124.228L24.4728 130.834L23.1062 127.843L25.2048 126.884ZM33.7324 107.207C34.023 108.679 33.9554 110.074 33.5299 111.392C33.0854 112.715 32.3266 113.835 31.2534 114.752C30.1614 115.674 28.8136 116.293 27.2102 116.609C25.6256 116.922 24.1513 116.851 22.7873 116.395C21.4233 115.939 20.292 115.173 19.3934 114.096C18.4948 113.019 17.8983 111.735 17.604 110.245C17.3098 108.755 17.3736 107.341 17.7954 106.003C18.2173 104.665 18.9723 103.526 20.0607 102.586C21.149 101.646 22.4855 101.02 24.0701 100.707C25.6546 100.394 27.1308 100.475 28.4985 100.95C29.8662 101.424 31.0125 102.217 31.9375 103.328C32.8398 104.424 33.4381 105.717 33.7324 107.207ZM30.9311 107.76C30.7672 106.93 30.4164 106.196 29.8787 105.557C29.3373 104.9 28.6258 104.423 27.7441 104.127C26.8624 103.83 25.8556 103.794 24.7238 104.018C23.5919 104.241 22.6821 104.646 21.9944 105.233C21.2878 105.823 20.8072 106.516 20.5526 107.311C20.298 108.106 20.2526 108.918 20.4165 109.748C20.5804 110.578 20.9312 111.313 21.4689 111.951C22.0029 112.571 22.707 113.01 23.5812 113.269C24.4366 113.531 25.4302 113.55 26.562 113.327C28.2409 112.995 29.4587 112.314 30.2154 111.283C30.9496 110.236 31.1881 109.062 30.9311 107.76ZM10.3991 92.4787L31.7412 92.7112L31.7053 95.9991L10.3633 95.7666L10.3991 92.4787Z" fill="white"/>
<path d="M23.6931 60.678C24.1044 58.6464 26.9207 58.426 27.6433 60.3688L27.7465 60.6462C28.0673 61.5086 28.921 62.0538 29.8384 61.982L30.6141 61.9213C32.5386 61.7706 33.595 64.112 32.2084 65.455L31.2099 66.4221C30.6225 66.991 30.4273 67.8535 30.7124 68.62L31.0907 69.6371C31.7963 71.5341 29.6297 73.2047 27.9744 72.04L27.8831 71.9758C27.0741 71.4066 25.9748 71.4927 25.2643 72.1808L25.1841 72.2584C23.7304 73.6664 21.33 72.3533 21.7315 70.3697L21.9468 69.3062C22.109 68.5047 21.7818 67.6831 21.1129 67.2125L19.976 66.4125C18.3971 65.3017 19.0759 62.8244 21.0004 62.6738L21.7761 62.6131C22.6935 62.5413 23.4519 61.8699 23.6344 60.968L23.6931 60.678Z" fill="white"/>
</svg>
