<svg width="28" height="28" viewBox="0 0 28 28" fill="none" xmlns="http://www.w3.org/2000/svg">
<mask id="mask0_2002_1380" style="mask-type:alpha" maskUnits="userSpaceOnUse" x="0" y="0" width="28" height="28">
<rect width="28" height="28" fill="#D9D9D9"/>
</mask>
<g mask="url(#mask0_2002_1380)">
<path d="M10.5 22.166V19.8327H24.5V22.166H10.5ZM10.5 15.166V12.8327H24.5V15.166H10.5ZM10.5 8.16602V5.83268H24.5V8.16602H10.5ZM5.83333 23.3327C5.19167 23.3327 4.64236 23.1042 4.18542 22.6473C3.72847 22.1903 3.5 21.641 3.5 20.9994C3.5 20.3577 3.72847 19.8084 4.18542 19.3514C4.64236 18.8945 5.19167 18.666 5.83333 18.666C6.475 18.666 7.02431 18.8945 7.48125 19.3514C7.93819 19.8084 8.16667 20.3577 8.16667 20.9994C8.16667 21.641 7.93819 22.1903 7.48125 22.6473C7.02431 23.1042 6.475 23.3327 5.83333 23.3327ZM5.83333 16.3327C5.19167 16.3327 4.64236 16.1042 4.18542 15.6473C3.72847 15.1903 3.5 14.641 3.5 13.9993C3.5 13.3577 3.72847 12.8084 4.18542 12.3514C4.64236 11.8945 5.19167 11.666 5.83333 11.666C6.475 11.666 7.02431 11.8945 7.48125 12.3514C7.93819 12.8084 8.16667 13.3577 8.16667 13.9993C8.16667 14.641 7.93819 15.1903 7.48125 15.6473C7.02431 16.1042 6.475 16.3327 5.83333 16.3327ZM5.83333 9.33268C5.19167 9.33268 4.64236 9.10421 4.18542 8.64727C3.72847 8.19032 3.5 7.64102 3.5 6.99935C3.5 6.35768 3.72847 5.80838 4.18542 5.35143C4.64236 4.89449 5.19167 4.66602 5.83333 4.66602C6.475 4.66602 7.02431 4.89449 7.48125 5.35143C7.93819 5.80838 8.16667 6.35768 8.16667 6.99935C8.16667 7.64102 7.93819 8.19032 7.48125 8.64727C7.02431 9.10421 6.475 9.33268 5.83333 9.33268Z" fill="white"/>
</g>
</svg>
