<svg width="78" height="39" viewBox="0 0 78 39" fill="none" xmlns="http://www.w3.org/2000/svg">
<path d="M73.8398 0C76.1373 0 78 1.86265 78 4.16016V24.96C78 27.2575 76.1373 29.1201 73.8398 29.1201H44.4258L38.3965 38.335C38.1912 38.6486 37.7317 38.6485 37.5264 38.335L31.4971 29.1201H4.16016C1.86265 29.1201 0 27.2575 0 24.96V4.16016C0 1.86265 1.86265 0 4.16016 0H73.8398Z" fill="url(#paint0_linear_741_1037)"/>
<path d="M12.02 20.54C13.7133 19.18 15.04 18.0667 16 17.2C16.96 16.32 17.7667 15.4067 18.42 14.46C19.0867 13.5 19.42 12.56 19.42 11.64C19.42 10.7733 19.2067 10.0933 18.78 9.6C18.3667 9.09333 17.6933 8.84 16.76 8.84C15.8533 8.84 15.1467 9.12667 14.64 9.7C14.1467 10.26 13.88 11.0133 13.84 11.96H12.08C12.1333 10.4667 12.5867 9.31333 13.44 8.5C14.2933 7.68667 15.3933 7.28 16.74 7.28C18.1133 7.28 19.2 7.66 20 8.42C20.8133 9.18 21.22 10.2267 21.22 11.56C21.22 12.6667 20.8867 13.7467 20.22 14.8C19.5667 15.84 18.82 16.76 17.98 17.56C17.14 18.3467 16.0667 19.2667 14.76 20.32H21.64V21.84H12.02V20.54ZM23.7439 14.62C23.7439 12.3267 24.1172 10.54 24.8639 9.26C25.6106 7.96667 26.9172 7.32 28.7839 7.32C30.6372 7.32 31.9372 7.96667 32.6839 9.26C33.4306 10.54 33.8039 12.3267 33.8039 14.62C33.8039 16.9533 33.4306 18.7667 32.6839 20.06C31.9372 21.3533 30.6372 22 28.7839 22C26.9172 22 25.6106 21.3533 24.8639 20.06C24.1172 18.7667 23.7439 16.9533 23.7439 14.62ZM32.0039 14.62C32.0039 13.46 31.9239 12.48 31.7639 11.68C31.6172 10.8667 31.3039 10.2133 30.8239 9.72C30.3572 9.22667 29.6772 8.98 28.7839 8.98C27.8772 8.98 27.1839 9.22667 26.7039 9.72C26.2372 10.2133 25.9239 10.8667 25.7639 11.68C25.6172 12.48 25.5439 13.46 25.5439 14.62C25.5439 15.82 25.6172 16.8267 25.7639 17.64C25.9239 18.4533 26.2372 19.1067 26.7039 19.6C27.1839 20.0933 27.8772 20.34 28.7839 20.34C29.6772 20.34 30.3572 20.0933 30.8239 19.6C31.3039 19.1067 31.6172 18.4533 31.7639 17.64C31.9239 16.8267 32.0039 15.82 32.0039 14.62ZM36.3025 14.62C36.3025 12.3267 36.6758 10.54 37.4225 9.26C38.1692 7.96667 39.4758 7.32 41.3425 7.32C43.1958 7.32 44.4958 7.96667 45.2425 9.26C45.9892 10.54 46.3625 12.3267 46.3625 14.62C46.3625 16.9533 45.9892 18.7667 45.2425 20.06C44.4958 21.3533 43.1958 22 41.3425 22C39.4758 22 38.1692 21.3533 37.4225 20.06C36.6758 18.7667 36.3025 16.9533 36.3025 14.62ZM44.5625 14.62C44.5625 13.46 44.4825 12.48 44.3225 11.68C44.1758 10.8667 43.8625 10.2133 43.3825 9.72C42.9158 9.22667 42.2358 8.98 41.3425 8.98C40.4358 8.98 39.7425 9.22667 39.2625 9.72C38.7958 10.2133 38.4825 10.8667 38.3225 11.68C38.1758 12.48 38.1025 13.46 38.1025 14.62C38.1025 15.82 38.1758 16.8267 38.3225 17.64C38.4825 18.4533 38.7958 19.1067 39.2625 19.6C39.7425 20.0933 40.4358 20.34 41.3425 20.34C42.2358 20.34 42.9158 20.0933 43.3825 19.6C43.8625 19.1067 44.1758 18.4533 44.3225 17.64C44.4825 16.8267 44.5625 15.82 44.5625 14.62ZM55.2811 22L50.9811 17.16V22H49.1611V7.2H50.9811V15.9L55.2011 11.04H57.7411L52.5811 16.5L57.7611 22H55.2811ZM69.8541 15.46H65.5941V19.78H63.8941V15.46H59.6541V13.92H63.8941V9.58H65.5941V13.92H69.8541V15.46Z" fill="white"/>
<defs>
<linearGradient id="paint0_linear_741_1037" x1="5.56556" y1="8.07886" x2="27.4018" y2="52.2381" gradientUnits="userSpaceOnUse">
<stop stop-color="#561FF9"/>
<stop offset="1" stop-color="#7A68AE"/>
</linearGradient>
</defs>
</svg>
