<svg width="78" height="39" viewBox="0 0 78 39" fill="none" xmlns="http://www.w3.org/2000/svg">
<path d="M73.8398 0C76.1373 0 78 1.86265 78 4.16016V24.96C78 27.2575 76.1373 29.1201 73.8398 29.1201H44.4258L38.3965 38.335C38.1912 38.6486 37.7317 38.6485 37.5264 38.335L31.4971 29.1201H4.16016C1.86265 29.1201 0 27.2575 0 24.96V4.16016C0 1.86265 1.86265 0 4.16016 0H73.8398Z" fill="url(#paint0_linear_741_1025)"/>
<path d="M19.8 18.78V17.4L26.82 7.68H29V17.2H31V18.78H29V22H27.2V18.78H19.8ZM27.28 9.58L21.9 17.2H27.28V9.58ZM32.8181 14.62C32.8181 12.3267 33.1915 10.54 33.9381 9.26C34.6848 7.96667 35.9915 7.32 37.8581 7.32C39.7115 7.32 41.0115 7.96667 41.7581 9.26C42.5048 10.54 42.8781 12.3267 42.8781 14.62C42.8781 16.9533 42.5048 18.7667 41.7581 20.06C41.0115 21.3533 39.7115 22 37.8581 22C35.9915 22 34.6848 21.3533 33.9381 20.06C33.1915 18.7667 32.8181 16.9533 32.8181 14.62ZM41.0781 14.62C41.0781 13.46 40.9981 12.48 40.8381 11.68C40.6915 10.8667 40.3781 10.2133 39.8981 9.72C39.4315 9.22667 38.7515 8.98 37.8581 8.98C36.9515 8.98 36.2581 9.22667 35.7781 9.72C35.3115 10.2133 34.9981 10.8667 34.8381 11.68C34.6915 12.48 34.6181 13.46 34.6181 14.62C34.6181 15.82 34.6915 16.8267 34.8381 17.64C34.9981 18.4533 35.3115 19.1067 35.7781 19.6C36.2581 20.0933 36.9515 20.34 37.8581 20.34C38.7515 20.34 39.4315 20.0933 39.8981 19.6C40.3781 19.1067 40.6915 18.4533 40.8381 17.64C40.9981 16.8267 41.0781 15.82 41.0781 14.62ZM44.9767 10.8C44.9767 9.89333 45.2501 9.17333 45.7967 8.64C46.3434 8.09333 47.0434 7.82 47.8967 7.82C48.7501 7.82 49.4501 8.09333 49.9967 8.64C50.5434 9.17333 50.8167 9.89333 50.8167 10.8C50.8167 11.72 50.5434 12.4533 49.9967 13C49.4501 13.5333 48.7501 13.8 47.8967 13.8C47.0434 13.8 46.3434 13.5333 45.7967 13C45.2501 12.4533 44.9767 11.72 44.9767 10.8ZM56.6567 8.04L48.5567 22H46.7567L54.8567 8.04H56.6567ZM47.8967 8.94C47.4434 8.94 47.0834 9.1 46.8167 9.42C46.5634 9.72667 46.4367 10.1867 46.4367 10.8C46.4367 11.4133 46.5634 11.88 46.8167 12.2C47.0834 12.52 47.4434 12.68 47.8967 12.68C48.3501 12.68 48.7101 12.52 48.9767 12.2C49.2434 11.8667 49.3767 11.4 49.3767 10.8C49.3767 10.1867 49.2434 9.72667 48.9767 9.42C48.7101 9.1 48.3501 8.94 47.8967 8.94ZM52.6367 19.24C52.6367 18.32 52.9101 17.5933 53.4567 17.06C54.0034 16.5133 54.7034 16.24 55.5567 16.24C56.4101 16.24 57.1034 16.5133 57.6367 17.06C58.1834 17.5933 58.4567 18.32 58.4567 19.24C58.4567 20.1467 58.1834 20.8733 57.6367 21.42C57.1034 21.9667 56.4101 22.24 55.5567 22.24C54.7034 22.24 54.0034 21.9733 53.4567 21.44C52.9101 20.8933 52.6367 20.16 52.6367 19.24ZM55.5367 17.38C55.0834 17.38 54.7234 17.54 54.4567 17.86C54.1901 18.1667 54.0567 18.6267 54.0567 19.24C54.0567 19.84 54.1901 20.3 54.4567 20.62C54.7234 20.9267 55.0834 21.08 55.5367 21.08C55.9901 21.08 56.3501 20.9267 56.6167 20.62C56.8834 20.3 57.0167 19.84 57.0167 19.24C57.0167 18.6267 56.8834 18.1667 56.6167 17.86C56.3501 17.54 55.9901 17.38 55.5367 17.38Z" fill="white"/>
<defs>
<linearGradient id="paint0_linear_741_1025" x1="5.56556" y1="8.07886" x2="27.4018" y2="52.2381" gradientUnits="userSpaceOnUse">
<stop stop-color="#561FF9"/>
<stop offset="1" stop-color="#7A68AE"/>
</linearGradient>
</defs>
</svg>
