<svg width="78" height="39" viewBox="0 0 78 39" fill="none" xmlns="http://www.w3.org/2000/svg">
<path d="M73.8398 0C76.1373 0 78 1.86265 78 4.16016V24.96C78 27.2575 76.1373 29.1201 73.8398 29.1201H44.4258L38.3965 38.335C38.1912 38.6486 37.7317 38.6485 37.5264 38.335L31.4971 29.1201H4.16016C1.86265 29.1201 0 27.2575 0 24.96V4.16016C0 1.86265 1.86265 0 4.16016 0H73.8398Z" fill="url(#paint0_linear_741_1031)"/>
<path d="M28.3 10.98C28.0067 9.5 27.0933 8.76 25.56 8.76C24.3733 8.76 23.4867 9.22 22.9 10.14C22.3133 11.0467 22.0267 12.5467 22.04 14.64C22.3467 13.9467 22.8533 13.4067 23.56 13.02C24.28 12.62 25.08 12.42 25.96 12.42C27.3333 12.42 28.4267 12.8467 29.24 13.7C30.0667 14.5533 30.48 15.7333 30.48 17.24C30.48 18.1467 30.3 18.96 29.94 19.68C29.5933 20.4 29.06 20.9733 28.34 21.4C27.6333 21.8267 26.7733 22.04 25.76 22.04C24.3867 22.04 23.3133 21.7333 22.54 21.12C21.7667 20.5067 21.2267 19.66 20.92 18.58C20.6133 17.5 20.46 16.1667 20.46 14.58C20.46 9.68667 22.1667 7.24 25.58 7.24C26.8867 7.24 27.9133 7.59333 28.66 8.3C29.4067 9.00667 29.8467 9.9 29.98 10.98H28.3ZM25.58 13.96C25.0067 13.96 24.4667 14.08 23.96 14.32C23.4533 14.5467 23.04 14.9 22.72 15.38C22.4133 15.8467 22.26 16.42 22.26 17.1C22.26 18.1133 22.5533 18.94 23.14 19.58C23.7267 20.2067 24.5667 20.52 25.66 20.52C26.5933 20.52 27.3333 20.2333 27.88 19.66C28.44 19.0733 28.72 18.2867 28.72 17.3C28.72 16.26 28.4533 15.4467 27.92 14.86C27.3867 14.26 26.6067 13.96 25.58 13.96ZM32.9353 14.62C32.9353 12.3267 33.3086 10.54 34.0553 9.26C34.802 7.96667 36.1086 7.32 37.9753 7.32C39.8286 7.32 41.1286 7.96667 41.8753 9.26C42.622 10.54 42.9953 12.3267 42.9953 14.62C42.9953 16.9533 42.622 18.7667 41.8753 20.06C41.1286 21.3533 39.8286 22 37.9753 22C36.1086 22 34.802 21.3533 34.0553 20.06C33.3086 18.7667 32.9353 16.9533 32.9353 14.62ZM41.1953 14.62C41.1953 13.46 41.1153 12.48 40.9553 11.68C40.8086 10.8667 40.4953 10.2133 40.0153 9.72C39.5486 9.22667 38.8686 8.98 37.9753 8.98C37.0686 8.98 36.3753 9.22667 35.8953 9.72C35.4286 10.2133 35.1153 10.8667 34.9553 11.68C34.8086 12.48 34.7353 13.46 34.7353 14.62C34.7353 15.82 34.8086 16.8267 34.9553 17.64C35.1153 18.4533 35.4286 19.1067 35.8953 19.6C36.3753 20.0933 37.0686 20.34 37.9753 20.34C38.8686 20.34 39.5486 20.0933 40.0153 19.6C40.4953 19.1067 40.8086 18.4533 40.9553 17.64C41.1153 16.8267 41.1953 15.82 41.1953 14.62ZM45.0939 10.8C45.0939 9.89333 45.3672 9.17333 45.9139 8.64C46.4606 8.09333 47.1606 7.82 48.0139 7.82C48.8672 7.82 49.5672 8.09333 50.1139 8.64C50.6606 9.17333 50.9339 9.89333 50.9339 10.8C50.9339 11.72 50.6606 12.4533 50.1139 13C49.5672 13.5333 48.8672 13.8 48.0139 13.8C47.1606 13.8 46.4606 13.5333 45.9139 13C45.3672 12.4533 45.0939 11.72 45.0939 10.8ZM56.7739 8.04L48.6739 22H46.8739L54.9739 8.04H56.7739ZM48.0139 8.94C47.5606 8.94 47.2006 9.1 46.9339 9.42C46.6806 9.72667 46.5539 10.1867 46.5539 10.8C46.5539 11.4133 46.6806 11.88 46.9339 12.2C47.2006 12.52 47.5606 12.68 48.0139 12.68C48.4672 12.68 48.8272 12.52 49.0939 12.2C49.3606 11.8667 49.4939 11.4 49.4939 10.8C49.4939 10.1867 49.3606 9.72667 49.0939 9.42C48.8272 9.1 48.4672 8.94 48.0139 8.94ZM52.7539 19.24C52.7539 18.32 53.0272 17.5933 53.5739 17.06C54.1206 16.5133 54.8206 16.24 55.6739 16.24C56.5272 16.24 57.2206 16.5133 57.7539 17.06C58.3006 17.5933 58.5739 18.32 58.5739 19.24C58.5739 20.1467 58.3006 20.8733 57.7539 21.42C57.2206 21.9667 56.5272 22.24 55.6739 22.24C54.8206 22.24 54.1206 21.9733 53.5739 21.44C53.0272 20.8933 52.7539 20.16 52.7539 19.24ZM55.6539 17.38C55.2006 17.38 54.8406 17.54 54.5739 17.86C54.3072 18.1667 54.1739 18.6267 54.1739 19.24C54.1739 19.84 54.3072 20.3 54.5739 20.62C54.8406 20.9267 55.2006 21.08 55.6539 21.08C56.1072 21.08 56.4672 20.9267 56.7339 20.62C57.0006 20.3 57.1339 19.84 57.1339 19.24C57.1339 18.6267 57.0006 18.1667 56.7339 17.86C56.4672 17.54 56.1072 17.38 55.6539 17.38Z" fill="white"/>
<defs>
<linearGradient id="paint0_linear_741_1031" x1="5.56556" y1="8.07886" x2="27.4018" y2="52.2381" gradientUnits="userSpaceOnUse">
<stop stop-color="#561FF9"/>
<stop offset="1" stop-color="#7A68AE"/>
</linearGradient>
</defs>
</svg>
