<svg width="78" height="39" viewBox="0 0 78 39" fill="none" xmlns="http://www.w3.org/2000/svg">
<path d="M73.8398 0C76.1373 0 78 1.86265 78 4.16016V24.96C78 27.2575 76.1373 29.1201 73.8398 29.1201H44.4258L38.3965 38.335C38.1912 38.6486 37.7317 38.6485 37.5264 38.335L31.4971 29.1201H4.16016C1.86265 29.1201 0 27.2575 0 24.96V4.16016C0 1.86265 1.86265 0 4.16016 0H73.8398Z" fill="url(#paint0_linear_741_1024)"/>
<path d="M22.88 14.48C22.1333 14.1867 21.56 13.76 21.16 13.2C20.76 12.64 20.56 11.96 20.56 11.16C20.56 10.44 20.74 9.79333 21.1 9.22C21.46 8.63333 21.9933 8.17333 22.7 7.84C23.42 7.49333 24.2867 7.32 25.3 7.32C26.3133 7.32 27.1733 7.49333 27.88 7.84C28.6 8.17333 29.14 8.63333 29.5 9.22C29.8733 9.79333 30.06 10.44 30.06 11.16C30.06 11.9333 29.8533 12.6133 29.44 13.2C29.0267 13.7733 28.46 14.2 27.74 14.48C28.5667 14.7333 29.22 15.18 29.7 15.82C30.1933 16.4467 30.44 17.2067 30.44 18.1C30.44 18.9667 30.2267 19.7267 29.8 20.38C29.3733 21.02 28.7667 21.52 27.98 21.88C27.2067 22.2267 26.3133 22.4 25.3 22.4C24.2867 22.4 23.3933 22.2267 22.62 21.88C21.86 21.52 21.2667 21.02 20.84 20.38C20.4133 19.7267 20.2 18.9667 20.2 18.1C20.2 17.2067 20.44 16.44 20.92 15.8C21.4 15.16 22.0533 14.72 22.88 14.48ZM28.3 11.38C28.3 10.5667 28.0333 9.94 27.5 9.5C26.9667 9.06 26.2333 8.84 25.3 8.84C24.38 8.84 23.6533 9.06 23.12 9.5C22.5867 9.94 22.32 10.5733 22.32 11.4C22.32 12.1467 22.5933 12.7467 23.14 13.2C23.7 13.6533 24.42 13.88 25.3 13.88C26.1933 13.88 26.9133 13.6533 27.46 13.2C28.02 12.7333 28.3 12.1267 28.3 11.38ZM25.3 15.28C24.3133 15.28 23.5067 15.5133 22.88 15.98C22.2533 16.4333 21.94 17.12 21.94 18.04C21.94 18.8933 22.24 19.58 22.84 20.1C23.4533 20.62 24.2733 20.88 25.3 20.88C26.3267 20.88 27.14 20.62 27.74 20.1C28.34 19.58 28.64 18.8933 28.64 18.04C28.64 17.1467 28.3333 16.4667 27.72 16C27.1067 15.52 26.3 15.28 25.3 15.28ZM32.8572 14.62C32.8572 12.3267 33.2305 10.54 33.9772 9.26C34.7239 7.96667 36.0305 7.32 37.8972 7.32C39.7505 7.32 41.0505 7.96667 41.7972 9.26C42.5439 10.54 42.9172 12.3267 42.9172 14.62C42.9172 16.9533 42.5439 18.7667 41.7972 20.06C41.0505 21.3533 39.7505 22 37.8972 22C36.0305 22 34.7239 21.3533 33.9772 20.06C33.2305 18.7667 32.8572 16.9533 32.8572 14.62ZM41.1172 14.62C41.1172 13.46 41.0372 12.48 40.8772 11.68C40.7305 10.8667 40.4172 10.2133 39.9372 9.72C39.4705 9.22667 38.7905 8.98 37.8972 8.98C36.9905 8.98 36.2972 9.22667 35.8172 9.72C35.3505 10.2133 35.0372 10.8667 34.8772 11.68C34.7305 12.48 34.6572 13.46 34.6572 14.62C34.6572 15.82 34.7305 16.8267 34.8772 17.64C35.0372 18.4533 35.3505 19.1067 35.8172 19.6C36.2972 20.0933 36.9905 20.34 37.8972 20.34C38.7905 20.34 39.4705 20.0933 39.9372 19.6C40.4172 19.1067 40.7305 18.4533 40.8772 17.64C41.0372 16.8267 41.1172 15.82 41.1172 14.62ZM45.0158 10.8C45.0158 9.89333 45.2891 9.17333 45.8358 8.64C46.3824 8.09333 47.0824 7.82 47.9358 7.82C48.7891 7.82 49.4891 8.09333 50.0358 8.64C50.5824 9.17333 50.8558 9.89333 50.8558 10.8C50.8558 11.72 50.5824 12.4533 50.0358 13C49.4891 13.5333 48.7891 13.8 47.9358 13.8C47.0824 13.8 46.3824 13.5333 45.8358 13C45.2891 12.4533 45.0158 11.72 45.0158 10.8ZM56.6958 8.04L48.5958 22H46.7958L54.8958 8.04H56.6958ZM47.9358 8.94C47.4824 8.94 47.1224 9.1 46.8558 9.42C46.6024 9.72667 46.4758 10.1867 46.4758 10.8C46.4758 11.4133 46.6024 11.88 46.8558 12.2C47.1224 12.52 47.4824 12.68 47.9358 12.68C48.3891 12.68 48.7491 12.52 49.0158 12.2C49.2824 11.8667 49.4158 11.4 49.4158 10.8C49.4158 10.1867 49.2824 9.72667 49.0158 9.42C48.7491 9.1 48.3891 8.94 47.9358 8.94ZM52.6758 19.24C52.6758 18.32 52.9491 17.5933 53.4958 17.06C54.0424 16.5133 54.7424 16.24 55.5958 16.24C56.4491 16.24 57.1424 16.5133 57.6758 17.06C58.2224 17.5933 58.4958 18.32 58.4958 19.24C58.4958 20.1467 58.2224 20.8733 57.6758 21.42C57.1424 21.9667 56.4491 22.24 55.5958 22.24C54.7424 22.24 54.0424 21.9733 53.4958 21.44C52.9491 20.8933 52.6758 20.16 52.6758 19.24ZM55.5758 17.38C55.1224 17.38 54.7624 17.54 54.4958 17.86C54.2291 18.1667 54.0958 18.6267 54.0958 19.24C54.0958 19.84 54.2291 20.3 54.4958 20.62C54.7624 20.9267 55.1224 21.08 55.5758 21.08C56.0291 21.08 56.3891 20.9267 56.6558 20.62C56.9224 20.3 57.0558 19.84 57.0558 19.24C57.0558 18.6267 56.9224 18.1667 56.6558 17.86C56.3891 17.54 56.0291 17.38 55.5758 17.38Z" fill="white"/>
<defs>
<linearGradient id="paint0_linear_741_1024" x1="5.56556" y1="8.07886" x2="27.4018" y2="52.2381" gradientUnits="userSpaceOnUse">
<stop stop-color="#561FF9"/>
<stop offset="1" stop-color="#7A68AE"/>
</linearGradient>
</defs>
</svg>
