<svg width="78" height="39" viewBox="0 0 78 39" fill="none" xmlns="http://www.w3.org/2000/svg">
<path d="M73.8398 0C76.1373 0 78 1.86265 78 4.16016V24.96C78 27.2575 76.1373 29.1201 73.8398 29.1201H44.4258L38.3965 38.335C38.1912 38.6486 37.7317 38.6485 37.5264 38.335L31.4971 29.1201H4.16016C1.86265 29.1201 0 27.2575 0 24.96V4.16016C0 1.86265 1.86265 0 4.16016 0H73.8398Z" fill="url(#paint0_linear_741_1043)"/>
<path d="M14.58 18.12C14.7133 18.88 15.02 19.4667 15.5 19.88C15.9933 20.2933 16.6533 20.5 17.48 20.5C18.5867 20.5 19.4 20.0667 19.92 19.2C20.4533 18.3333 20.7067 16.8733 20.68 14.82C20.4 15.42 19.9333 15.8933 19.28 16.24C18.6267 16.5733 17.9 16.74 17.1 16.74C16.2067 16.74 15.4067 16.56 14.7 16.2C14.0067 15.8267 13.46 15.2867 13.06 14.58C12.66 13.8733 12.46 13.02 12.46 12.02C12.46 10.5933 12.8733 9.44667 13.7 8.58C14.5267 7.7 15.7 7.26 17.22 7.26C19.0867 7.26 20.3933 7.86667 21.14 9.08C21.9 10.2933 22.28 12.1 22.28 14.5C22.28 16.18 22.1267 17.5667 21.82 18.66C21.5267 19.7533 21.02 20.5867 20.3 21.16C19.5933 21.7333 18.62 22.02 17.38 22.02C16.02 22.02 14.96 21.6533 14.2 20.92C13.44 20.1867 13.0067 19.2533 12.9 18.12H14.58ZM17.4 15.2C18.2933 15.2 19.0267 14.9267 19.6 14.38C20.1733 13.82 20.46 13.0667 20.46 12.12C20.46 11.12 20.18 10.3133 19.62 9.7C19.06 9.08667 18.2733 8.78 17.26 8.78C16.3267 8.78 15.58 9.07333 15.02 9.66C14.4733 10.2467 14.2 11.02 14.2 11.98C14.2 12.9533 14.4733 13.7333 15.02 14.32C15.5667 14.9067 16.36 15.2 17.4 15.2ZM27.1777 18.12C27.311 18.88 27.6177 19.4667 28.0977 19.88C28.591 20.2933 29.251 20.5 30.0777 20.5C31.1843 20.5 31.9977 20.0667 32.5177 19.2C33.051 18.3333 33.3043 16.8733 33.2777 14.82C32.9977 15.42 32.531 15.8933 31.8777 16.24C31.2243 16.5733 30.4977 16.74 29.6977 16.74C28.8043 16.74 28.0043 16.56 27.2977 16.2C26.6043 15.8267 26.0577 15.2867 25.6577 14.58C25.2577 13.8733 25.0577 13.02 25.0577 12.02C25.0577 10.5933 25.471 9.44667 26.2977 8.58C27.1243 7.7 28.2977 7.26 29.8177 7.26C31.6843 7.26 32.991 7.86667 33.7377 9.08C34.4977 10.2933 34.8777 12.1 34.8777 14.5C34.8777 16.18 34.7243 17.5667 34.4177 18.66C34.1243 19.7533 33.6177 20.5867 32.8977 21.16C32.191 21.7333 31.2177 22.02 29.9777 22.02C28.6177 22.02 27.5577 21.6533 26.7977 20.92C26.0377 20.1867 25.6043 19.2533 25.4977 18.12H27.1777ZM29.9977 15.2C30.891 15.2 31.6243 14.9267 32.1977 14.38C32.771 13.82 33.0577 13.0667 33.0577 12.12C33.0577 11.12 32.7777 10.3133 32.2177 9.7C31.6577 9.08667 30.871 8.78 29.8577 8.78C28.9243 8.78 28.1777 9.07333 27.6177 9.66C27.071 10.2467 26.7977 11.02 26.7977 11.98C26.7977 12.9533 27.071 13.7333 27.6177 14.32C28.1643 14.9067 28.9577 15.2 29.9977 15.2ZM38.3153 22.12C37.9686 22.12 37.6753 22 37.4353 21.76C37.1953 21.52 37.0753 21.2267 37.0753 20.88C37.0753 20.5333 37.1953 20.24 37.4353 20C37.6753 19.76 37.9686 19.64 38.3153 19.64C38.6486 19.64 38.9286 19.76 39.1553 20C39.3953 20.24 39.5153 20.5333 39.5153 20.88C39.5153 21.2267 39.3953 21.52 39.1553 21.76C38.9286 22 38.6486 22.12 38.3153 22.12ZM43.9745 18.12C44.1079 18.88 44.4145 19.4667 44.8945 19.88C45.3879 20.2933 46.0479 20.5 46.8745 20.5C47.9812 20.5 48.7945 20.0667 49.3145 19.2C49.8479 18.3333 50.1012 16.8733 50.0745 14.82C49.7945 15.42 49.3279 15.8933 48.6745 16.24C48.0212 16.5733 47.2945 16.74 46.4945 16.74C45.6012 16.74 44.8012 16.56 44.0945 16.2C43.4012 15.8267 42.8545 15.2867 42.4545 14.58C42.0545 13.8733 41.8545 13.02 41.8545 12.02C41.8545 10.5933 42.2679 9.44667 43.0945 8.58C43.9212 7.7 45.0945 7.26 46.6145 7.26C48.4812 7.26 49.7879 7.86667 50.5345 9.08C51.2945 10.2933 51.6745 12.1 51.6745 14.5C51.6745 16.18 51.5212 17.5667 51.2145 18.66C50.9212 19.7533 50.4145 20.5867 49.6945 21.16C48.9879 21.7333 48.0145 22.02 46.7745 22.02C45.4145 22.02 44.3545 21.6533 43.5945 20.92C42.8345 20.1867 42.4012 19.2533 42.2945 18.12H43.9745ZM46.7945 15.2C47.6879 15.2 48.4212 14.9267 48.9945 14.38C49.5679 13.82 49.8545 13.0667 49.8545 12.12C49.8545 11.12 49.5745 10.3133 49.0145 9.7C48.4545 9.08667 47.6679 8.78 46.6545 8.78C45.7212 8.78 44.9745 9.07333 44.4145 9.66C43.8679 10.2467 43.5945 11.02 43.5945 11.98C43.5945 12.9533 43.8679 13.7333 44.4145 14.32C44.9612 14.9067 45.7545 15.2 46.7945 15.2ZM53.8322 10.8C53.8322 9.89333 54.1055 9.17333 54.6522 8.64C55.1989 8.09333 55.8989 7.82 56.7522 7.82C57.6055 7.82 58.3055 8.09333 58.8522 8.64C59.3989 9.17333 59.6722 9.89333 59.6722 10.8C59.6722 11.72 59.3989 12.4533 58.8522 13C58.3055 13.5333 57.6055 13.8 56.7522 13.8C55.8989 13.8 55.1989 13.5333 54.6522 13C54.1055 12.4533 53.8322 11.72 53.8322 10.8ZM65.5122 8.04L57.4122 22H55.6122L63.7122 8.04H65.5122ZM56.7522 8.94C56.2989 8.94 55.9389 9.1 55.6722 9.42C55.4189 9.72667 55.2922 10.1867 55.2922 10.8C55.2922 11.4133 55.4189 11.88 55.6722 12.2C55.9389 12.52 56.2989 12.68 56.7522 12.68C57.2055 12.68 57.5655 12.52 57.8322 12.2C58.0989 11.8667 58.2322 11.4 58.2322 10.8C58.2322 10.1867 58.0989 9.72667 57.8322 9.42C57.5655 9.1 57.2055 8.94 56.7522 8.94ZM61.4922 19.24C61.4922 18.32 61.7655 17.5933 62.3122 17.06C62.8589 16.5133 63.5589 16.24 64.4122 16.24C65.2655 16.24 65.9589 16.5133 66.4922 17.06C67.0389 17.5933 67.3122 18.32 67.3122 19.24C67.3122 20.1467 67.0389 20.8733 66.4922 21.42C65.9589 21.9667 65.2655 22.24 64.4122 22.24C63.5589 22.24 62.8589 21.9733 62.3122 21.44C61.7655 20.8933 61.4922 20.16 61.4922 19.24ZM64.3922 17.38C63.9389 17.38 63.5789 17.54 63.3122 17.86C63.0455 18.1667 62.9122 18.6267 62.9122 19.24C62.9122 19.84 63.0455 20.3 63.3122 20.62C63.5789 20.9267 63.9389 21.08 64.3922 21.08C64.8455 21.08 65.2055 20.9267 65.4722 20.62C65.7389 20.3 65.8722 19.84 65.8722 19.24C65.8722 18.6267 65.7389 18.1667 65.4722 17.86C65.2055 17.54 64.8455 17.38 64.3922 17.38Z" fill="white"/>
<defs>
<linearGradient id="paint0_linear_741_1043" x1="5.56556" y1="8.07886" x2="27.4018" y2="52.2381" gradientUnits="userSpaceOnUse">
<stop stop-color="#561FF9"/>
<stop offset="1" stop-color="#7A68AE"/>
</linearGradient>
</defs>
</svg>
