<svg width="28" height="28" viewBox="0 0 28 28" fill="none" xmlns="http://www.w3.org/2000/svg">
<path d="M16.1 28C22.8354 26.9807 28 21.1366 28 14.0788C28 6.3031 21.7322 0 14 0C6.2678 0 0 6.3031 0 14.0788C0 21.1366 5.1646 26.9821 11.9 28V18.3025H9.8C9.24304 18.3025 8.7089 18.08 8.31507 17.684C7.92125 17.2879 7.7 16.7508 7.7 16.1907C7.7 15.6306 7.92125 15.0934 8.31507 14.6974C8.7089 14.3013 9.24304 14.0788 9.8 14.0788H11.9V11.2631C11.9 9.95619 12.4162 8.70284 13.3352 7.77874C14.2541 6.85463 15.5004 6.33548 16.8 6.33548H17.5C18.057 6.33548 18.5911 6.55797 18.9849 6.95402C19.3787 7.35006 19.6 7.88721 19.6 8.4473C19.6 9.0074 19.3787 9.54455 18.9849 9.94059C18.5911 10.3366 18.057 10.5591 17.5 10.5591H16.8C16.6143 10.5591 16.4363 10.6333 16.305 10.7653C16.1737 10.8973 16.1 11.0764 16.1 11.2631V14.0788H18.2C18.757 14.0788 19.2911 14.3013 19.6849 14.6974C20.0787 15.0934 20.3 15.6306 20.3 16.1907C20.3 16.7508 20.0787 17.2879 19.6849 17.684C19.2911 18.08 18.757 18.3025 18.2 18.3025H16.1V28Z" fill="black"/>
</svg>
