<svg width="28" height="28" viewBox="0 0 28 28" fill="none" xmlns="http://www.w3.org/2000/svg">
<path d="M8.16439 0C3.66222 0 0 3.66561 0 8.16895V19.8356C0 24.3378 3.66561 28 8.16895 28H19.8356C24.3378 28 28 24.3344 28 19.8311V8.16439C28 3.66222 24.3344 0 19.8311 0H8.16439ZM22.1667 4.66667C22.8107 4.66667 23.3333 5.18933 23.3333 5.83333C23.3333 6.47733 22.8107 7 22.1667 7C21.5227 7 21 6.47733 21 5.83333C21 5.18933 21.5227 4.66667 22.1667 4.66667ZM14 7C17.8605 7 21 10.1395 21 14C21 17.8605 17.8605 21 14 21C10.1395 21 7 17.8605 7 14C7 10.1395 10.1395 7 14 7ZM14 9.33333C12.7623 9.33333 11.5753 9.825 10.7002 10.7002C9.825 11.5753 9.33333 12.7623 9.33333 14C9.33333 15.2377 9.825 16.4247 10.7002 17.2998C11.5753 18.175 12.7623 18.6667 14 18.6667C15.2377 18.6667 16.4247 18.175 17.2998 17.2998C18.175 16.4247 18.6667 15.2377 18.6667 14C18.6667 12.7623 18.175 11.5753 17.2998 10.7002C16.4247 9.825 15.2377 9.33333 14 9.33333Z" fill="black"/>
</svg>
