<svg width="28" height="28" viewBox="0 0 28 28" fill="none" xmlns="http://www.w3.org/2000/svg">
<path d="M2.54545 0C1.13909 0 0 1.13909 0 2.54545V25.4545C0 26.8609 1.13909 28 2.54545 28H25.4545C26.8609 28 28 26.8609 28 25.4545V2.54545C28 1.13909 26.8609 0 25.4545 0H2.54545ZM5.91619 6.36364H11.7852L15.2106 11.2607L19.4489 6.36364H21.2958L16.0408 12.4489L22.4691 21.6364H16.6001L12.7994 16.2024L8.10618 21.6364H6.2294L11.9641 15.0117L5.91619 6.36364ZM8.75497 7.87003L17.3509 20.1225H19.6278L11.0295 7.87003H8.75497Z" fill="black"/>
</svg>
